<?xml version="1.0" standalone="no"?>
<!DOCTYPE svg PUBLIC "-//W3C//DTD SVG 20010904//EN"
 "http://www.w3.org/TR/2001/REC-SVG-20010904/DTD/svg10.dtd">
<svg version="1.0" xmlns="http://www.w3.org/2000/svg"
 width="30.000000pt" height="30.000000pt" viewBox="0 0 188.000000 210.000000"
 preserveAspectRatio="xMidYMid meet">
<metadata>
Created by potrace 1.16, written by Peter Selinger 2001-2019
</metadata>
<g transform="translate(0.000000,210.000000) scale(0.100000,-0.100000)"
fill="#000000" stroke="none">
<path d="M246 1754 c-14 -14 -16 -82 -16 -597 0 -320 4 -587 8 -593 7 -12 611
-346 668 -370 30 -13 39 -8 375 175 l344 187 3 591 c2 528 0 593 -14 607 -14
14 -88 16 -684 16 -594 0 -670 -2 -684 -16z m1304 -606 l-1 -543 -137 -74
c-75 -41 -215 -116 -310 -168 l-172 -93 -308 168 -307 167 -3 530 c-1 292 0
536 3 543 3 9 137 12 620 12 l615 0 0 -542z"/>
<path d="M630 1530 l0 -40 358 -2 357 -3 3 -158 3 -158 37 3 37 3 3 174 c2
143 0 178 -13 197 l-15 24 -385 0 -385 0 0 -40z"/>
<path d="M450 1350 c-19 -19 -20 -33 -20 -327 0 -170 3 -317 6 -328 3 -13 39
-39 92 -69 236 -133 392 -216 404 -216 17 0 481 259 490 273 4 7 8 74 8 150
l0 137 -40 0 -39 0 -3 -122 -3 -122 -200 -113 c-110 -61 -206 -112 -213 -112
-8 -1 -44 16 -80 37 -37 22 -126 71 -199 111 l-132 72 -3 275 c-2 152 0 278 4
280 4 3 141 6 305 7 l298 2 0 40 0 40 -327 3 c-317 2 -328 2 -348 -18z"/>
<path d="M640 936 l0 -135 28 -19 c48 -33 248 -142 262 -142 14 0 270 139 270
147 0 10 -31 63 -37 63 -3 0 -55 -27 -114 -60 -59 -33 -112 -60 -118 -60 -6 0
-56 25 -111 56 l-100 56 0 114 0 114 -40 0 -40 0 0 -134z"/>
</g>
</svg>
